<svg xmlns="http://www.w3.org/2000/svg" viewBox="0 0 960 580" role="img" aria-labelledby="title desc">
  <title id="title">Social media funnel</title>
  <desc id="desc">A social content funnel with audience signals, posts, and conversion flow.</desc>
  <defs>
    <linearGradient id="bg" x1="0" x2="1" y1="0" y2="1">
      <stop offset="0" stop-color="#111"/>
      <stop offset=".54" stop-color="#2b2860"/>
      <stop offset="1" stop-color="#ff784f"/>
    </linearGradient>
  </defs>
  <rect width="960" height="580" rx="44" fill="url(#bg)"/>
  <circle cx="760" cy="120" r="130" fill="#fff" opacity=".1"/>
  <circle cx="190" cy="428" r="150" fill="#7261f4" opacity=".3"/>
  <rect x="116" y="86" width="248" height="372" rx="34" fill="#fff" opacity=".9"/>
  <rect x="402" y="142" width="170" height="116" rx="28" fill="#fff" opacity=".82"/>
  <rect x="402" y="310" width="170" height="116" rx="28" fill="#fff" opacity=".82"/>
  <rect x="632" y="210" width="212" height="148" rx="30" fill="#fff" opacity=".9"/>
  <rect x="154" y="130" width="172" height="172" rx="28" fill="#7261f4"/>
  <circle cx="210" cy="216" r="38" fill="#fff" opacity=".94"/>
  <path d="M224 226 C240 203 272 202 287 226" fill="none" stroke="#fff" stroke-width="12" stroke-linecap="round"/>
  <rect x="154" y="332" width="138" height="14" rx="7" fill="#111" opacity=".55"/>
  <rect x="154" y="366" width="176" height="14" rx="7" fill="#111" opacity=".28"/>
  <rect x="438" y="178" width="98" height="18" rx="9" fill="#111" opacity=".58"/>
  <rect x="438" y="346" width="98" height="18" rx="9" fill="#111" opacity=".58"/>
  <rect x="672" y="250" width="132" height="18" rx="9" fill="#111" opacity=".58"/>
  <path d="M364 272 C398 258 404 235 432 226" fill="none" stroke="#fff" stroke-width="8" stroke-linecap="round" opacity=".72"/>
  <path d="M572 250 C610 257 614 276 642 294" fill="none" stroke="#fff" stroke-width="8" stroke-linecap="round" opacity=".72"/>
  <path d="M572 360 C604 350 614 330 642 318" fill="none" stroke="#fff" stroke-width="8" stroke-linecap="round" opacity=".72"/>
  <g fill="#7261f4">
    <circle cx="432" cy="226" r="12"/>
    <circle cx="642" cy="294" r="12"/>
    <circle cx="642" cy="318" r="12"/>
  </g>
</svg>
