<svg width="1600" height="900" viewBox="0 0 1600 900" fill="none" xmlns="http://www.w3.org/2000/svg">
  <defs>
    <linearGradient id="bg" x1="180" y1="94" x2="1420" y2="824" gradientUnits="userSpaceOnUse">
      <stop offset="0" stop-color="#101E2B"/>
      <stop offset="0.52" stop-color="#17384A"/>
      <stop offset="1" stop-color="#2B1717"/>
    </linearGradient>
    <linearGradient id="panel" x1="319" y1="178" x2="1297" y2="736" gradientUnits="userSpaceOnUse">
      <stop stop-color="rgba(255,255,255,0.19)"/>
      <stop offset="1" stop-color="rgba(255,255,255,0.07)"/>
    </linearGradient>
    <linearGradient id="lineA" x1="327" y1="597" x2="1218" y2="374" gradientUnits="userSpaceOnUse">
      <stop stop-color="#F3D35B"/>
      <stop offset="1" stop-color="#FF7A59"/>
    </linearGradient>
    <linearGradient id="lineB" x1="333" y1="649" x2="1228" y2="456" gradientUnits="userSpaceOnUse">
      <stop stop-color="#8EE3F5"/>
      <stop offset="1" stop-color="#B291FF"/>
    </linearGradient>
    <filter id="blur" x="0" y="0" width="1600" height="900" filterUnits="userSpaceOnUse" color-interpolation-filters="sRGB">
      <feGaussianBlur stdDeviation="40"/>
    </filter>
  </defs>

  <rect width="1600" height="900" fill="url(#bg)"/>
  <g filter="url(#blur)" opacity="0.34">
    <circle cx="312" cy="197" r="148" fill="#7261F4"/>
    <circle cx="1288" cy="204" r="156" fill="#FF7A59"/>
    <circle cx="1127" cy="744" r="182" fill="#0BB5D1"/>
  </g>

  <rect x="188" y="118" width="1224" height="664" rx="34" fill="rgba(10,18,26,0.58)" stroke="rgba(255,255,255,0.16)" stroke-width="2"/>
  <rect x="220" y="150" width="1160" height="600" rx="28" fill="url(#panel)" stroke="rgba(255,255,255,0.09)" stroke-width="2"/>

  <rect x="270" y="204" width="360" height="150" rx="26" fill="rgba(255,255,255,0.08)" stroke="rgba(255,255,255,0.12)" stroke-width="2"/>
  <rect x="650" y="204" width="330" height="150" rx="26" fill="rgba(255,255,255,0.08)" stroke="rgba(255,255,255,0.12)" stroke-width="2"/>
  <rect x="1000" y="204" width="330" height="150" rx="26" fill="rgba(255,255,255,0.08)" stroke="rgba(255,255,255,0.12)" stroke-width="2"/>

  <text x="304" y="248" fill="#D4E6F3" font-family="Inter, Arial, sans-serif" font-size="24" font-weight="600">AI Assistant</text>
  <text x="304" y="311" fill="white" font-family="Inter, Arial, sans-serif" font-size="58" font-weight="800">ai-assistant</text>
  <text x="304" y="336" fill="#9FB8C9" font-family="Inter, Arial, sans-serif" font-size="18">Native GA4 channel for recognized assistants</text>

  <text x="684" y="248" fill="#D4E6F3" font-family="Inter, Arial, sans-serif" font-size="24" font-weight="600">Organic Search</text>
  <text x="684" y="311" fill="white" font-family="Inter, Arial, sans-serif" font-size="58" font-weight="800">AIO + AI Mode</text>
  <text x="684" y="336" fill="#9FB8C9" font-family="Inter, Arial, sans-serif" font-size="18">Google classifies these visits here</text>

  <text x="1034" y="248" fill="#D4E6F3" font-family="Inter, Arial, sans-serif" font-size="24" font-weight="600">Lead quality</text>
  <text x="1034" y="311" fill="white" font-family="Inter, Arial, sans-serif" font-size="58" font-weight="800">CRM wins</text>
  <text x="1034" y="336" fill="#9FB8C9" font-family="Inter, Arial, sans-serif" font-size="18">Traffic only matters when it closes</text>

  <rect x="274" y="404" width="1052" height="292" rx="26" fill="rgba(8,14,22,0.48)" stroke="rgba(255,255,255,0.1)" stroke-width="2"/>

  <path d="M326 592C401 587 465 548 545 515C626 481 706 479 783 437C861 394 924 429 1002 380C1061 343 1137 326 1219 343" stroke="url(#lineA)" stroke-width="8" stroke-linecap="round"/>
  <path d="M334 647C414 643 489 615 566 590C651 562 744 584 826 534C894 492 967 491 1045 453C1108 422 1167 431 1228 458" stroke="url(#lineB)" stroke-width="8" stroke-linecap="round"/>

  <circle cx="545" cy="515" r="12" fill="#F3D35B"/>
  <circle cx="783" cy="437" r="12" fill="#FF996E"/>
  <circle cx="1002" cy="380" r="12" fill="#FF7A59"/>
  <circle cx="566" cy="590" r="12" fill="#8EE3F5"/>
  <circle cx="826" cy="534" r="12" fill="#A5C5FF"/>
  <circle cx="1045" cy="453" r="12" fill="#B291FF"/>

  <text x="320" y="458" fill="#D4E6F3" font-family="Inter, Arial, sans-serif" font-size="23" font-weight="600">Visibility and conversion picture</text>
  <text x="320" y="491" fill="#9FB8C9" font-family="Inter, Arial, sans-serif" font-size="18">AI assistant clicks are only one layer. Read the page, the channel, the return visit, and the lead quality together.</text>

  <text x="320" y="734" fill="#D4E6F3" font-family="Inter, Arial, sans-serif" font-size="20" font-weight="700">Scalexis</text>
  <text x="410" y="734" fill="#9FB8C9" font-family="Inter, Arial, sans-serif" font-size="18">Measure AI visibility like a revenue channel, not a novelty metric.</text>
</svg>
